HIERARCHY
ROOT Hips
{
    OFFSET 0.000000 0.000000 0.000000
    CHANNELS 6 Xposition Yposition Zposition Zrotation Xrotation Yrotation
    JOINT Spine
    {
        OFFSET -0.000000 14.517291 0.000000
        CHANNELS 3 Zrotation Xrotation Yrotation
        JOINT Spine1
        {
            OFFSET -0.000000 37.558300 0.000000
            CHANNELS 3 Zrotation Xrotation Yrotation
            JOINT Neck
            {
                OFFSET -0.000000 37.404057 3.400369
                CHANNELS 3 Zrotation Xrotation Yrotation
                JOINT Head
                {
                    OFFSET -0.000000 24.785618 -3.540803
                    CHANNELS 3 Zrotation Xrotation Yrotation
                    End Site
                    {
                        OFFSET -0.000000 35.408028 0.000000
                    }
                }
            }
            JOINT LeftShoulder
            {
                OFFSET 6.992933 33.973492 -0.192664
                CHANNELS 3 Zrotation Xrotation Yrotation
                JOINT LeftArm
                {
                    OFFSET 21.527611 0.000000 0.000000
                    CHANNELS 3 Zrotation Xrotation Yrotation
                    JOINT LeftForeArm
                    {
                        OFFSET 56.353916 0.000000 0.000000
                        CHANNELS 3 Zrotation Xrotation Yrotation
                        JOINT LeftHand
                        {
                            OFFSET 47.774071 0.000000 0.000000
                            CHANNELS 3 Zrotation Xrotation Yrotation
                            End Site
                            {
                                OFFSET 26.556021 0.000000 0.000000
                            }
                        }
                    }
                }
            }
            JOINT RightShoulder
            {
                OFFSET -7.065357 33.973492 -0.192664
                CHANNELS 3 Zrotation Xrotation Yrotation
                JOINT RightArm
                {
                    OFFSET -21.527611 0.000000 0.000000
                    CHANNELS 3 Zrotation Xrotation Yrotation
                    JOINT RightForeArm
                    {
                        OFFSET -56.353916 0.000000 0.000000
                        CHANNELS 3 Zrotation Xrotation Yrotation
                        JOINT RightHand
                        {
                            OFFSET -47.774071 0.000000 0.000000
                            CHANNELS 3 Zrotation Xrotation Yrotation
                            End Site
                            {
                                OFFSET -26.556021 0.000000 0.000000
                            }
                        }
                    }
                }
            }
        }
    }
    JOINT LeftUpLeg
    {
        OFFSET 17.704014 0.000000 0.000000
        CHANNELS 3 Zrotation Xrotation Yrotation
        JOINT LeftLeg
        {
            OFFSET -0.000000 -81.181816 0.000000
            CHANNELS 3 Zrotation Xrotation Yrotation
            JOINT LeftFoot
            {
                OFFSET -0.000000 -62.821102 0.000000
                CHANNELS 3 Zrotation Xrotation Yrotation
                JOINT LeftToeBase
                {
                    OFFSET -0.000000 -11.507608 26.556021
                    CHANNELS 3 Zrotation Xrotation Yrotation
                    End Site
                    {
                        OFFSET -0.000000 0.000000 7.081605
                    }
                }
            }
        }
    }
    JOINT RightUpLeg
    {
        OFFSET -17.704014 0.000000 0.000000
        CHANNELS 3 Zrotation Xrotation Yrotation
        JOINT RightLeg
        {
            OFFSET -0.000000 -81.181816 0.000000
            CHANNELS 3 Zrotation Xrotation Yrotation
            JOINT RightFoot
            {
                OFFSET -0.000000 -62.821102 0.000000
                CHANNELS 3 Zrotation Xrotation Yrotation
                JOINT RightToeBase
                {
                    OFFSET -0.000000 -11.507608 26.556021
                    CHANNELS 3 Zrotation Xrotation Yrotation
                    End Site
                    {
                        OFFSET -0.000000 0.000000 7.081605
                    }
                }
            }
        }
    }
}
MOTION
Frames:    14
Frame Time:    0.008333
-24.302364    153.115891    -32.150414    1.239185    1.565352    11.433609    -1.864031    1.780793    4.557279    -2.399446    2.805179    1.569627    4.704757    3.654345    -5.459271    5.886608    -10.842680    -4.847114    2.537402    6.002703    -9.442768    -39.676479    16.273352    -52.274120    -5.184762    -23.068007    -125.795349    -2.799484    -31.906668    -7.546046    1.771943    10.939245    -4.486199    39.964550    18.418409    49.447151    -19.733597    -31.836424    74.180450    6.199142    -16.818521    25.293089    1.071036    -31.543394    -23.746735    -11.791816    24.839842    -21.980761    -7.762598    -2.252634    35.936535    0.000000    0.000000    0.000000    -2.002513    7.966396    -15.785686    2.603331    25.480221    -3.334213    1.662375    -30.828434    -8.676077    0.000000    0.000000    0.000000    
-24.295975    153.107315    -32.151234    1.236985    1.550898    11.443819    -1.860886    1.783196    4.579739    -2.407958    2.812364    1.577479    4.696140    3.659718    -5.479929    5.888251    -10.827308    -4.867783    2.533368    6.004507    -9.459586    -39.671944    16.290482    -52.273056    -5.195801    -23.077259    -125.804436    -2.783944    -31.936174    -7.546876    1.778882    10.923248    -4.452585    39.838844    18.299358    49.754383    -19.994699    -32.060638    73.918106    6.265386    -16.920567    25.458027    1.067604    -31.541801    -23.738535    -11.798497    24.863096    -21.978363    -7.748676    -2.254757    35.924683    0.000000    0.000000    0.000000    -1.998057    7.976939    -15.800366    2.595225    25.494034    -3.336283    1.664542    -30.836033    -8.661250    0.000000    0.000000    0.000000    
-24.289738    153.103104    -32.153778    1.231286    1.540962    11.456413    -1.862679    1.786613    4.592331    -2.394408    2.809520    1.581256    4.660684    3.649097    -5.492949    5.903133    -10.788617    -4.876111    2.506010    6.005239    -9.460987    -39.667381    16.311653    -52.262848    -5.192751    -23.083855    -125.812920    -2.758819    -31.940430    -7.529623    1.767069    10.917274    -4.407483    39.772266    18.101719    50.053394    -20.235054    -32.179485    73.679436    6.338496    -16.914635    25.591047    1.065314    -31.544798    -23.754196    -11.812928    24.875881    -21.967161    -7.737099    -2.252898    35.930981    0.000000    0.000000    0.000000    -1.994676    7.977305    -15.812607    2.592962    25.518263    -3.326263    1.691811    -30.840906    -8.651107    0.000000    0.000000    0.000000    
-24.285559    153.095383    -32.152618    1.227304    1.531937    11.471984    -1.858167    1.778009    4.608756    -2.402272    2.831658    1.587434    4.665937    3.625017    -5.509346    5.877747    -10.759786    -4.902183    2.504688    5.994869    -9.459454    -39.669533    16.335672    -52.265526    -5.190019    -23.090101    -125.810417    -2.766364    -31.940102    -7.565297    1.768072    10.899817    -4.380251    39.734940    17.864902    50.331131    -20.383083    -32.257751    73.520355    6.393046    -16.916304    25.712774    1.063385    -31.548409    -23.773331    -11.828357    24.892300    -21.951883    -7.728693    -2.258171    35.916309    0.000000    0.000000    0.000000    -1.986548    7.981894    -15.842304    2.577880    25.532459    -3.333884    1.708486    -30.850859    -8.628856    0.000000    0.000000    0.000000    
-24.279675    153.087982    -32.155460    1.219557    1.522276    11.485712    -1.853522    1.783919    4.623759    -2.395984    2.827499    1.592216    4.627322    3.630463    -5.528878    5.902114    -10.748824    -4.912655    2.485901    6.012592    -9.455206    -39.648785    16.359304    -52.279140    -5.182374    -23.122055    -125.816505    -2.771726    -31.957750    -7.561822    1.761667    10.892717    -4.347830    39.667412    17.670721    50.622189    -20.577108    -32.379055    73.311394    6.535317    -16.924360    25.882811    1.061538    -31.553812    -23.764957    -11.825302    24.917414    -21.980417    -7.724013    -2.268075    35.917015    0.000000    0.000000    0.000000    -1.979079    7.982711    -15.845934    2.582180    25.552595    -3.330714    1.689534    -30.860767    -8.642435    0.000000    0.000000    0.000000    
-24.278801    153.079468    -32.158772    1.212307    1.511577    11.498799    -1.847636    1.809594    4.639758    -2.403731    2.791693    1.596898    4.607416    3.630299    -5.549047    5.920444    -10.711770    -4.928918    2.479810    6.029645    -9.458722    -39.660160    16.368099    -52.266483    -5.192746    -23.102472    -125.829002    -2.768164    -31.959389    -7.570250    1.770064    10.885223    -4.307962    39.554733    17.558447    50.905293    -20.951561    -32.575756    72.999039    6.644915    -16.924103    25.981153    1.062922    -31.558207    -23.774355    -11.837101    24.937405    -21.975012    -7.722107    -2.277641    35.920002    0.000000    0.000000    0.000000    -1.966057    7.984720    -15.859568    2.572710    25.569469    -3.310059    1.696033    -30.874956    -8.657273    0.000000    0.000000    0.000000    
-24.272043    153.071487    -32.160896    1.209795    1.510054    11.514376    -1.843044    1.835451    4.652449    -2.414603    2.742652    1.600249    4.592001    3.648462    -5.565253    5.929125    -10.701158    -4.941754    2.466829    6.050342    -9.449948    -39.658096    16.393772    -52.267563    -5.198740    -23.093578    -125.845413    -2.748124    -31.965889    -7.553898    1.776404    10.878900    -4.275743    39.525352    17.320049    51.157036    -21.078934    -32.601093    72.857018    6.637773    -16.890574    26.128729    1.055310    -31.566534    -23.780668    -11.837854    24.952269    -22.003870    -7.706497    -2.279514    35.925236    0.000000    0.000000    0.000000    -1.963951    7.980861    -15.871363    2.568676    25.586836    -3.302798    1.679707    -30.882174    -8.673608    0.000000    0.000000    0.000000    
-24.269287    153.062439    -32.168720    1.200758    1.508380    11.534637    -1.836539    1.864162    4.666657    -2.415757    2.690643    1.603757    4.569114    3.642105    -5.588521    5.934023    -10.656011    -4.964721    2.457460    6.074973    -9.449716    -39.658012    16.407961    -52.269806    -5.206666    -23.083729    -125.852516    -2.743094    -31.971457    -7.564348    1.784608    10.867614    -4.245622    39.485928    17.112129    51.404446    -21.199749    -32.698666    72.737762    6.717247    -16.922150    26.215956    1.051298    -31.580307    -23.772484    -11.830729    24.971495    -22.026979    -7.708865    -2.282913    35.917583    0.000000    0.000000    0.000000    -1.955506    7.978159    -15.888390    2.577820    25.595840    -3.329524    1.685679    -30.897734    -8.661321    0.000000    0.000000    0.000000    
-24.265989    153.056213    -32.165951    1.196119    1.494013    11.554619    -1.850046    1.758126    4.686120    -2.372470    2.864144    1.613372    4.548038    3.642230    -5.606129    5.933524    -10.698562    -4.978594    2.468047    6.034612    -9.498246    -39.651516    16.414919    -52.291187    -5.179912    -23.177198    -125.829048    -2.747050    -32.008301    -7.563113    1.733532    10.806892    -4.181305    39.415401    16.902487    51.697510    -21.452906    -32.833694    72.446823    6.817838    -16.933777    26.448343    1.048300    -31.575092    -23.774090    -11.837415    24.985998    -22.028873    -7.697149    -2.286473    35.900772    0.000000    0.000000    0.000000    -1.946169    7.995398    -15.917013    2.568599    25.599333    -3.303370    1.682846    -30.907722    -8.660033    0.000000    0.000000    0.000000    
-24.262636    153.048889    -32.174637    1.189396    1.497994    11.579144    -1.790247    2.222140    4.659364    -2.430682    2.122966    1.587087    4.317301    3.653751    -5.644753    6.097917    -10.401388    -4.968516    2.221539    6.176191    -9.352146    -39.561958    16.548336    -52.122509    -5.235267    -23.022980    -125.974915    -2.716699    -31.988609    -7.535957    1.761595    11.016672    -4.255620    39.476837    16.762892    51.941246    -21.455484    -32.745583    72.541901    6.805939    -16.807417    26.446449    1.037251    -31.592308    -23.779285    -11.833595    24.998722    -22.032856    -7.685411    -2.275524    35.885979    0.000000    0.000000    0.000000    -1.943271    7.987191    -15.937779    2.578707    25.609686    -3.332449    1.678312    -30.912445    -8.643409    0.000000    0.000000    0.000000    
-24.261101    153.044968    -32.177765    1.181724    1.497939    11.599908    -1.777180    2.296837    4.667922    -2.449849    1.992323    1.587194    4.272731    3.654449    -5.668088    6.146457    -10.323901    -4.980447    2.196325    6.212709    -9.338337    -39.556477    16.561531    -52.103569    -5.246163    -22.980577    -125.993881    -2.674826    -31.974091    -7.522964    1.781575    11.035685    -4.230632    39.446171    16.556049    52.185417    -21.547930    -32.803780    72.448700    6.829644    -16.820238    26.547775    1.034343    -31.601816    -23.788820    -11.836920    25.007074    -22.047400    -7.700401    -2.283459    35.897427    0.000000    0.000000    0.000000    -1.934145    7.986278    -15.980855    2.568730    25.612368    -3.318875    1.713521    -30.915899    -8.639784    0.000000    0.000000    0.000000    
-24.254585    153.041840    -32.184769    1.174359    1.502201    11.623122    -1.838115    1.761117    4.709761    -2.359476    2.833818    1.620325    4.433591    3.614769    -5.661265    6.026583    -10.612111    -5.006501    2.433351    6.022497    -9.487371    -39.629589    16.471659    -52.315891    -5.172493    -23.217566    -125.828873    -2.784581    -32.030491    -7.582309    1.697076    10.756330    -4.057893    39.156269    16.444241    52.489243    -22.080568    -33.315620    71.880989    7.106772    -17.097723    26.779650    1.025943    -31.612244    -23.800533    -11.835065    25.002464    -22.034294    -7.697206    -2.268717    35.871941    0.000000    0.000000    0.000000    -1.931508    7.978124    -16.017397    2.569955    25.625137    -3.327348    1.717993    -30.919289    -8.606840    0.000000    0.000000    0.000000    
-24.253237    153.039551    -32.190006    1.163937    1.505993    11.641312    -1.832732    1.758179    4.728683    -2.353361    2.823566    1.626319    4.405731    3.618864    -5.686528    6.045364    -10.596947    -5.025822    2.424794    6.031979    -9.496858    -39.618717    16.469200    -52.329742    -5.176446    -23.218880    -125.828323    -2.759544    -32.039639    -7.580017    1.682608    10.732470    -4.006603    39.124172    16.218870    52.726349    -22.190311    -33.381599    71.754845    7.091320    -17.126301    26.885849    1.024157    -31.625637    -23.800377    -11.832483    25.012760    -22.042545    -7.695910    -2.267970    35.868843    0.000000    0.000000    0.000000    -1.922407    7.969033    -16.039803    2.565883    25.634399    -3.340375    1.747233    -30.920624    -8.579350    0.000000    0.000000    0.000000    
-24.251896    153.038925    -32.195087    1.157379    1.502568    11.662575    -1.826151    1.766496    4.739998    -2.354621    2.813216    1.629901    4.358645    3.606992    -5.712018    6.097460    -10.564798    -5.036902    2.416981    6.027056    -9.502650    -39.604488    16.482141    -52.338314    -5.160207    -23.250452    -125.824005    -2.782854    -32.039478    -7.580856    1.670166    10.709268    -3.932421    39.074005    16.033005    52.942913    -22.418898    -33.508598    71.554085    7.207598    -17.128899    27.005266    1.017871    -31.624666    -23.806341    -11.817660    25.010483    -22.068800    -7.705490    -2.270221    35.868927    0.000000    0.000000    0.000000    -1.913353    7.967815    -16.049450    2.574978    25.639898    -3.341518    1.716530    -30.910122    -8.620464    0.000000    0.000000    0.000000    
